<svg xmlns="http://www.w3.org/2000/svg" viewBox="0 0 1200 630" width="1200" height="630">
  <defs>
    <linearGradient id="bg" x1="0" y1="0" x2="1" y2="1">
      <stop offset="0%" stop-color="#0B2545"/>
      <stop offset="100%" stop-color="#134074"/>
    </linearGradient>
    <linearGradient id="goldGrad" x1="0" y1="0" x2="1" y2="1">
      <stop offset="0%" stop-color="#F0B429"/>
      <stop offset="100%" stop-color="#D49A1A"/>
    </linearGradient>
    <linearGradient id="tealGrad" x1="0" y1="0" x2="1" y2="0">
      <stop offset="0%" stop-color="#0EA5A0"/>
      <stop offset="100%" stop-color="#14C9C3"/>
    </linearGradient>
  </defs>

  <rect width="1200" height="630" fill="url(#bg)"/>

  <!-- Decorative circles -->
  <circle cx="1100" cy="100" r="300" fill="rgba(255,255,255,0.015)"/>
  <circle cx="100" cy="530" r="200" fill="rgba(255,255,255,0.02)"/>
  <circle cx="600" cy="315" r="1" fill="rgba(255,255,255,0.06)"/>
  <circle cx="200" cy="150" r="2" fill="rgba(14,165,160,0.15)"/>
  <circle cx="950" cy="420" r="2" fill="rgba(14,165,160,0.15)"/>
  <circle cx="350" cy="500" r="1.5" fill="rgba(240,180,41,0.15)"/>
  <circle cx="800" cy="120" r="1.5" fill="rgba(240,180,41,0.15)"/>

  <!-- Paper plane icon (from favicon, scaled 3x) -->
  <g transform="translate(440, 40) scale(2.5)" fill="url(#goldGrad)">
    <path d="M50.4 78.5a75.1 75.1 0 0 0-28.5 6.9l24.2-65.7c.7-2 1.9-3.2 3.4-3.2h29c1.5 0 2.7 1.2 3.4 3.2l24.2 65.7s-11.6-7-28.5-7L67 45.5c-.4-1.7-1.6-2.8-2.9-2.8-1.3 0-2.5 1.1-2.9 2.7L50.4 78.5Zm-1.1 28.2Zm-4.2-20.2c-2 6.6-.6 15.8 4.2 20.2a17.5 17.5 0 0 1 .2-.7 5.5 5.5 0 0 1 5.7-4.5c2.8.1 4.3 1.5 4.7 4.7.2 1.1.2 2.3.2 3.5v.4c0 2.7.7 5.2 2.2 7.4a13 13 0 0 0 5.7 4.9v-.3l-.2-.3c-1.8-5.6-.5-9.5 4.4-12.8l1.5-1a73 73 0 0 0 3.2-2.2 16 16 0 0 0 6.8-11.4c.3-2 .1-4-.6-6l-.8.6-1.6 1a37 37 0 0 1-22.4 2.7c-5-.7-9.7-2-13.2-6.2Z"/>
  </g>

  <!-- Brand text -->
  <text x="600" y="340" text-anchor="middle" font-family="Georgia, 'Playfair Display', serif" font-size="72" font-weight="700" fill="#FFFFFF" letter-spacing="2">Darius Viajes</text>

  <!-- Tagline -->
  <text x="600" y="400" text-anchor="middle" font-family="system-ui, -apple-system, Inter, sans-serif" font-size="28" font-weight="400" fill="#14C9C3" letter-spacing="1">Descubrí tu próximo destino</text>

  <!-- Divider line -->
  <line x1="450" y1="435" x2="750" y2="435" stroke="rgba(14,165,160,0.3)" stroke-width="1"/>

  <!-- Destination pills -->
  <g transform="translate(600, 495)" font-family="Arial, Helvetica, sans-serif" font-size="18" fill="#E8F4F8" text-anchor="middle">
    <circle cx="-320" cy="-6" r="6" fill="#0EA5A0"/>
    <text x="-300" y="0">Caribe</text>
    <text x="-200" y="0" fill="rgba(255,255,255,0.15)" font-size="14">|</text>
    <circle cx="-108" cy="-6" r="6" fill="#14C9C3"/>
    <text x="-88" y="0">Brasil</text>
    <text x="12" y="0" fill="rgba(255,255,255,0.15)" font-size="14">|</text>
    <circle cx="100" cy="-6" r="6" fill="#F0B429"/>
    <text x="120" y="0">Cruceros</text>
    <text x="228" y="0" fill="rgba(255,255,255,0.15)" font-size="14">|</text>
    <circle cx="316" cy="-6" r="6" fill="#14C9C3"/>
    <text x="336" y="0">Argentina</text>
  </g>

  <!-- Badge -->
  <rect x="978" y="20" width="202" height="48" rx="24" fill="rgba(240,180,41,0.12)" stroke="rgba(240,180,41,0.25)" stroke-width="1"/>
  <text x="1079" y="51" text-anchor="middle" font-family="system-ui, -apple-system, Inter, sans-serif" font-size="16" font-weight="600" fill="#F0B429" letter-spacing="0.5">20+ años de experiencia</text>
</svg>
